<svg width="6295" height="2569" viewBox="0 0 6295 2569" fill="none" xmlns="http://www.w3.org/2000/svg">
<g clip-path="url(#clip0_546_44)">
<rect width="6295" height="2569" fill="black"/>
<path d="M1492 523.223L3499.09 1034.1C3499.09 1034.1 2922.76 998.794 2574.33 1093.87C1810.11 1302.41 3796.37 2556.68 3796.37 2556.68L5438 3862.45L-1606 -2721.08L4267.1 4645L3547.44 3616.2C3547.44 3616.2 2455.43 814.402 1982.05 1478.35C1785.5 1754.02 1811.6 2300.76 1811.6 2300.76L1492 523.223ZM5438 523.223C5438 1208.84 5299.2 1801.35 5021.6 2300.76C4744 2800.16 4363.19 3185.29 3879.17 3456.15C3395.15 3727.02 2842.32 3862.45 2220.69 3862.45C1599.05 3862.45 1046.22 3727.02 562.203 3456.15C78.1827 3185.29 -302.628 2800.16 -580.228 2300.76C-857.828 1801.35 -996.628 1208.84 -996.628 523.223C-996.628 -162.396 -857.828 -754.907 -580.228 -1254.31C-302.628 -1753.71 78.1827 -2138.84 562.203 -2409.71C1046.22 -2680.57 1599.05 -2816 2220.69 -2816C2842.32 -2816 3395.15 -2680.57 3879.17 -2409.71C4363.19 -2138.84 4744 -1753.71 5021.6 -1254.31C5299.2 -754.907 5438 -162.396 5438 523.223ZM4583.85 523.223C4583.85 -39.6621 4478.26 -514.729 4267.1 -901.977C4058.3 -1289.23 3774.77 -1582.31 3416.5 -1781.22C3060.6 -1980.14 2662 -2079.59 2220.69 -2079.59C1779.37 -2079.59 1379.58 -1980.14 1021.31 -1781.22C665.414 -1582.31 381.882 -1289.23 170.716 -901.977C-38.0771 -514.729 -142.474 -39.6621 -142.474 523.223C-142.474 1086.11 -38.0771 1561.18 170.716 1948.42C381.882 2335.67 665.414 2628.75 1021.31 2827.67C1379.58 3026.58 1779.37 3126.04 2220.69 3126.04C2662 3126.04 3060.6 3026.58 3416.5 2827.67C3774.77 2628.75 4058.3 2335.67 4267.1 1948.42C4478.26 1561.18 4583.85 1086.11 4583.85 523.223Z" fill="#3F3F3F" fill-opacity="0.2"/>
</g>
<defs>
<clipPath id="clip0_546_44">
<rect width="6295" height="2569" fill="white"/>
</clipPath>
</defs>
</svg>
